<?xml version="1.0" encoding="UTF-8"?>
<svg width="948px" height="917px" viewBox="0 0 948 917" version="1.1" xmlns="http://www.w3.org/2000/svg" xmlns:xlink="http://www.w3.org/1999/xlink">
    <!-- Generator: Sketch 41.2 (35397) - http://www.bohemiancoding.com/sketch -->
    <title>codersTable</title>
    <desc>Created with Sketch.</desc>
    <defs>
        <filter x="-50%" y="-50%" width="200%" height="200%" filterUnits="objectBoundingBox" id="filter-1">
            <feOffset dx="0" dy="-4" in="SourceAlpha" result="shadowOffsetOuter1"></feOffset>
            <feGaussianBlur stdDeviation="2" in="shadowOffsetOuter1" result="shadowBlurOuter1"></feGaussianBlur>
            <feColorMatrix values="0 0 0 0 0   0 0 0 0 0   0 0 0 0 0  0 0 0 0.5 0" type="matrix" in="shadowBlurOuter1" result="shadowMatrixOuter1"></feColorMatrix>
            <feMerge>
                <feMergeNode in="shadowMatrixOuter1"></feMergeNode>
                <feMergeNode in="SourceGraphic"></feMergeNode>
            </feMerge>
        </filter>
        <rect id="path-2" x="0" y="0" width="367" height="359" rx="8"></rect>
        <mask id="mask-3" maskContentUnits="userSpaceOnUse" maskUnits="objectBoundingBox" x="0" y="0" width="367" height="359" fill="white">
            <use xlink:href="#path-2"></use>
        </mask>
        <filter x="-50%" y="-50%" width="200%" height="200%" filterUnits="objectBoundingBox" id="filter-4">
            <feOffset dx="0" dy="-4" in="SourceAlpha" result="shadowOffsetOuter1"></feOffset>
            <feGaussianBlur stdDeviation="2" in="shadowOffsetOuter1" result="shadowBlurOuter1"></feGaussianBlur>
            <feColorMatrix values="0 0 0 0 0   0 0 0 0 0   0 0 0 0 0  0 0 0 0.5 0" type="matrix" in="shadowBlurOuter1" result="shadowMatrixOuter1"></feColorMatrix>
            <feMerge>
                <feMergeNode in="shadowMatrixOuter1"></feMergeNode>
                <feMergeNode in="SourceGraphic"></feMergeNode>
            </feMerge>
        </filter>
        <path d="M518,554.5 L518,586.5" id="path-5"></path>
        <filter x="-50%" y="-50%" width="200%" height="200%" filterUnits="objectBoundingBox" id="filter-6">
            <feMorphology radius="3" operator="dilate" in="SourceAlpha" result="shadowSpreadOuter1"></feMorphology>
            <feOffset dx="0" dy="-4" in="shadowSpreadOuter1" result="shadowOffsetOuter1"></feOffset>
            <feMorphology radius="3" operator="erode" in="SourceAlpha" result="shadowInner"></feMorphology>
            <feOffset dx="0" dy="-4" in="shadowInner" result="shadowInner"></feOffset>
            <feComposite in="shadowOffsetOuter1" in2="shadowInner" operator="out" result="shadowOffsetOuter1"></feComposite>
            <feGaussianBlur stdDeviation="2" in="shadowOffsetOuter1" result="shadowBlurOuter1"></feGaussianBlur>
            <feColorMatrix values="0 0 0 0 0   0 0 0 0 0   0 0 0 0 0  0 0 0 0.5 0" type="matrix" in="shadowBlurOuter1"></feColorMatrix>
        </filter>
        <filter x="-50%" y="-50%" width="200%" height="200%" filterUnits="objectBoundingBox" id="filter-7">
            <feOffset dx="0" dy="-4" in="SourceAlpha" result="shadowOffsetOuter1"></feOffset>
            <feGaussianBlur stdDeviation="2" in="shadowOffsetOuter1" result="shadowBlurOuter1"></feGaussianBlur>
            <feColorMatrix values="0 0 0 0 0   0 0 0 0 0   0 0 0 0 0  0 0 0 0.5 0" type="matrix" in="shadowBlurOuter1" result="shadowMatrixOuter1"></feColorMatrix>
            <feMerge>
                <feMergeNode in="shadowMatrixOuter1"></feMergeNode>
                <feMergeNode in="SourceGraphic"></feMergeNode>
            </feMerge>
        </filter>
        <path d="M3.06796255e-13,21.9920416 C3.06796255e-13,9.84617243 9.84671907,1.56319402e-13 21.9995462,1.56319402e-13 L69.0004538,1.56319402e-13 C81.1504677,1.56319402e-13 91,9.84191895 91,21.9920416 L91,128.007958 C91,140.153828 81.1532809,150 69.0004538,150 L21.9995462,150 C9.84953234,150 3.06796255e-13,140.158081 3.06796255e-13,128.007958 L3.06796255e-13,21.9920416 Z" id="path-8"></path>
        <mask id="mask-9" maskContentUnits="userSpaceOnUse" maskUnits="objectBoundingBox" x="0" y="0" width="91" height="150" fill="white">
            <use xlink:href="#path-8"></use>
        </mask>
        <path d="M767.499182,513 L763,513 L763,229 L789.490435,229 L780.115337,229 C773.870871,229 763,229 763,229 L781,192 L798.865533,229 L789.490435,229 L799,229 L799,513 L794.500913,513 C797.178525,514.430776 799,517.251767 799,520.507445 L799,543.492555 C799,548.191087 795.198447,552 790.491305,552 L771.508695,552 C766.809472,552 763,548.200835 763,543.492555 L763,520.507445 C763,517.257052 764.819317,514.432406 767.499182,513 Z" id="path-10"></path>
        <filter x="-50%" y="-50%" width="200%" height="200%" filterUnits="objectBoundingBox" id="filter-11">
            <feOffset dx="0" dy="-4" in="SourceAlpha" result="shadowOffsetOuter1"></feOffset>
            <feGaussianBlur stdDeviation="2" in="shadowOffsetOuter1" result="shadowBlurOuter1"></feGaussianBlur>
            <feComposite in="shadowBlurOuter1" in2="SourceAlpha" operator="out" result="shadowBlurOuter1"></feComposite>
            <feColorMatrix values="0 0 0 0 0   0 0 0 0 0   0 0 0 0 0  0 0 0 0.5 0" type="matrix" in="shadowBlurOuter1"></feColorMatrix>
        </filter>
        <filter x="-50%" y="-50%" width="200%" height="200%" filterUnits="objectBoundingBox" id="filter-12">
            <feOffset dx="0" dy="-4" in="SourceAlpha" result="shadowOffsetOuter1"></feOffset>
            <feGaussianBlur stdDeviation="2" in="shadowOffsetOuter1" result="shadowBlurOuter1"></feGaussianBlur>
            <feColorMatrix values="0 0 0 0 0   0 0 0 0 0   0 0 0 0 0  0 0 0 0.5 0" type="matrix" in="shadowBlurOuter1" result="shadowMatrixOuter1"></feColorMatrix>
            <feMerge>
                <feMergeNode in="shadowMatrixOuter1"></feMergeNode>
                <feMergeNode in="SourceGraphic"></feMergeNode>
            </feMerge>
        </filter>
        <ellipse id="path-13" cx="50" cy="50" rx="50" ry="50"></ellipse>
        <linearGradient x1="50%" y1="0%" x2="50%" y2="100%" id="linearGradient-15">
            <stop stop-color="#FFFFFF" offset="0%"></stop>
            <stop stop-color="#FAFAFA" offset="100%"></stop>
        </linearGradient>
        <linearGradient x1="50%" y1="2.38240689%" x2="50%" y2="100%" id="linearGradient-16">
            <stop stop-color="#283845" offset="0%"></stop>
            <stop stop-color="#51697B" offset="100%"></stop>
        </linearGradient>
        <rect id="path-17" x="122" y="217" width="190" height="321" rx="22"></rect>
        <mask id="mask-18" maskContentUnits="userSpaceOnUse" maskUnits="objectBoundingBox" x="0" y="0" width="190" height="321" fill="white">
            <use xlink:href="#path-17"></use>
        </mask>
        <rect id="path-19" x="138" y="238" width="159" height="279"></rect>
        <mask id="mask-20" maskContentUnits="userSpaceOnUse" maskUnits="objectBoundingBox" x="0" y="0" width="159" height="279" fill="white">
            <use xlink:href="#path-19"></use>
        </mask>
    </defs>
    <g id="Page-1" stroke="none" stroke-width="1" fill="none" fill-rule="evenodd">
        <g id="codersTable">
            <g id="Group-3" filter="url(#filter-1)" transform="translate(340.000000, 193.000000)">
                <use id="Rectangle-4" stroke="#0E0E0E" mask="url(#mask-3)" stroke-width="20" fill="#4990E2" xlink:href="#path-2"></use>
                <text id="&lt;-&gt;" font-family="AmericanTypewriter, American Typewriter" font-size="34" font-weight="normal" fill="#FFFFFF">
                    <tspan x="35" y="79">&lt;-&gt;</tspan>
                </text>
                <text id="&lt;-&gt;-copy" font-family="AmericanTypewriter, American Typewriter" font-size="34" font-weight="normal" fill="#FFFFFF">
                    <tspan x="287.769947" y="299">&lt;-&gt;</tspan>
                </text>
                <rect id="Rectangle-5" fill="#505168" x="10" y="9" width="347" height="15"></rect>
                <rect id="Rectangle-6" fill="#E5F4E3" x="96" y="60" width="87" height="16" rx="8"></rect>
                <rect id="Rectangle-6-Copy" fill="#EFB0A1" x="199" y="60" width="87" height="16" rx="8"></rect>
                <rect id="Rectangle-6-Copy-2" fill="#437C90" x="34" y="100" width="157" height="16" rx="8"></rect>
                <rect id="Rectangle-6-Copy-3" fill="#764248" x="50" y="127" width="236" height="16" rx="8"></rect>
                <rect id="Rectangle-6-Copy-4" fill="#E5F4E3" x="50" y="154" width="103" height="16" rx="8"></rect>
                <rect id="Rectangle-6-Copy-5" fill="#EFB0A1" x="34" y="194" width="252" height="16" rx="8"></rect>
                <rect id="Rectangle-6-Copy-6" fill="#E5F4E3" x="225" y="221" width="61" height="16" rx="8"></rect>
                <rect id="Rectangle-6-Copy-7" fill="#437C90" x="130" y="221" width="61" height="16" rx="8"></rect>
                <rect id="Rectangle-6-Copy-9" fill="#764248" x="157" y="282" width="103" height="16" rx="8"></rect>
                <rect id="Rectangle-6-Copy-10" fill="#E5F4E3" x="41" y="249" width="157" height="16" rx="8"></rect>
                <rect id="Rectangle-6-Copy-8" fill="#EFB0A1" x="41" y="221" width="61" height="16" rx="8"></rect>
                <circle id="Oval" fill="#E85465" cx="18.5" cy="16.5" r="2.5"></circle>
                <circle id="Oval-Copy" fill="#F8E81C" cx="31.5" cy="16.5" r="2.5"></circle>
                <circle id="Oval-Copy-2" fill="#50E3C2" cx="43.5" cy="16.5" r="2.5"></circle>
            </g>
            <g id="1484537248_141_Keyboard" filter="url(#filter-4)" transform="translate(369.000000, 576.000000)" fill="#283845">
                <g id="Group">
                    <g id="Icons-with-numbers">
                        <g id="Group">
                            <path d="M19.3293405,0 C8.65404713,0 0,6.83496 0,14.93097 L0,135.06903 C0,143.315175 8.58693619,150 19.3293405,150 L289.67066,150 C300.345953,150 309,143.16504 309,135.06903 L309,14.93097 C309,6.684825 300.413064,0 289.67066,0 L19.3293405,0 Z M270.375,45 L270.375,75 L289.6875,75 L289.6875,45 L270.375,45 Z M231.75,30 L231.75,45 L251.0625,45 L251.0625,30 L231.75,30 Z M231.75,60 L231.75,75 L251.0625,75 L251.0625,60 L231.75,60 Z M212.4375,90 L212.4375,105 L231.75,105 L231.75,90 L212.4375,90 Z M173.8125,90 L173.8125,105 L193.125,105 L193.125,90 L173.8125,90 Z M57.9375,120 L57.9375,135 L77.25,135 L77.25,120 L57.9375,120 Z M19.3125,120 L19.3125,135 L38.625,135 L38.625,120 L19.3125,120 Z M270.375,120 L270.375,135 L289.6875,135 L289.6875,120 L270.375,120 Z M231.75,120 L231.75,135 L251.0625,135 L251.0625,120 L231.75,120 Z M193.125,30 L193.125,45 L212.4375,45 L212.4375,30 L193.125,30 Z M154.5,30 L154.5,45 L173.8125,45 L173.8125,30 L154.5,30 Z M115.875,30 L115.875,45 L135.1875,45 L135.1875,30 L115.875,30 Z M77.25,30 L77.25,45 L96.5625,45 L96.5625,30 L77.25,30 Z M193.125,60 L193.125,75 L212.4375,75 L212.4375,60 L193.125,60 Z M154.5,60 L154.5,75 L173.8125,75 L173.8125,60 L154.5,60 Z M115.875,60 L115.875,75 L135.1875,75 L135.1875,60 L115.875,60 Z M77.25,60 L77.25,75 L96.5625,75 L96.5625,60 L77.25,60 Z M135.1875,90 L135.1875,105 L154.5,105 L154.5,90 L135.1875,90 Z M96.5625,90 L96.5625,105 L115.875,105 L115.875,90 L96.5625,90 Z M57.9375,90 L57.9375,105 L77.25,105 L77.25,90 L57.9375,90 Z M19.3125,90 L19.3125,105 L38.625,105 L38.625,90 L19.3125,90 Z M96.5625,120 L96.5625,135 L212.4375,135 L212.4375,120 L96.5625,120 Z M251.0625,90 L251.0625,105 L289.6875,105 L289.6875,90 L251.0625,90 Z M19.3125,60 L19.3125,75 L57.9375,75 L57.9375,60 L19.3125,60 Z M19.3125,30 L19.3125,45 L57.9375,45 L57.9375,30 L19.3125,30 Z" id="Rectangle-297"></path>
                        </g>
                    </g>
                </g>
            </g>
            <g id="Line">
                <use fill="black" fill-opacity="1" filter="url(#filter-6)" xlink:href="#path-5"></use>
                <use stroke="#283845" stroke-width="6" stroke-linecap="square" xlink:href="#path-5"></use>
            </g>
            <g id="Group-2" filter="url(#filter-7)" transform="translate(735.000000, 576.000000)">
                <use id="Rectangle-7" stroke="#283845" mask="url(#mask-9)" stroke-width="2" fill="#283845" xlink:href="#path-8"></use>
                <path d="M46,47.5 L46,11" id="Line" stroke="#FFFFFF" stroke-width="4" stroke-linecap="square"></path>
            </g>
            <g id="Combined-Shape">
                <use fill="black" fill-opacity="1" filter="url(#filter-11)" xlink:href="#path-10"></use>
                <use fill="#012622" fill-rule="evenodd" xlink:href="#path-10"></use>
            </g>
            <g id="Group-4" filter="url(#filter-12)" transform="translate(146.000000, 600.000000)">
                <g id="Oval-3" transform="translate(3.000000, 2.000000)">
                    <mask id="mask-14" fill="white">
                        <use xlink:href="#path-13"></use>
                    </mask>
                    <use id="Mask" fill="#764248" xlink:href="#path-13"></use>
                    <path d="M49.9499736,103.359866 C77.0063185,103.359863 98.9796925,80.0529019 98.9796925,56.5 C98.9796925,32.9470981 77.0063185,9.16436955 49.9499736,9.16436742 C34.8813262,9.16436624 17.5681137,14.6079339 8.58147154,23.9246301 C-0.405170662,33.2413262 1,46.0645506 1,56.5 C1,80.0529062 22.8936286,103.359868 49.9499736,103.359866 Z" fill="#93585F" mask="url(#mask-14)"></path>
                </g>
                <ellipse id="Oval-2" stroke="#C1C1C1" stroke-width="9" cx="51.5" cy="50" rx="51.5" ry="50"></ellipse>
                <rect id="Rectangle-9" fill="#C1C1C1" x="103" y="43" width="28" height="18" rx="9"></rect>
            </g>
            <rect id="Rectangle-10" fill="url(#linearGradient-15)" x="779" y="422" width="5" height="79" rx="2.5"></rect>
            <use id="Rectangle-11" stroke="#283845" mask="url(#mask-18)" stroke-width="4" fill="url(#linearGradient-16)" xlink:href="#path-17"></use>
            <use id="Rectangle-12" stroke="#979797" mask="url(#mask-20)" stroke-width="2" fill="#FFFFFF" xlink:href="#path-19"></use>
            <g id="Group-5" transform="translate(146.000000, 266.000000)" fill="#D8D8D8">
                <rect id="Rectangle-2" x="0" y="0" width="145" height="11" rx="5.5"></rect>
                <rect id="Rectangle-2-Copy-4" x="0" y="112" width="145" height="11" rx="5.5"></rect>
                <rect id="Rectangle-2-Copy-2" x="1" y="56" width="145" height="11" rx="5.5"></rect>
                <rect id="Rectangle-2-Copy-5" x="1" y="168" width="145" height="11" rx="5.5"></rect>
                <rect id="Rectangle-2-Copy" x="1" y="28" width="145" height="11" rx="5.5"></rect>
                <rect id="Rectangle-2-Copy-6" x="1" y="140" width="145" height="11" rx="5.5"></rect>
                <rect id="Rectangle-2-Copy-3" x="1" y="84" width="145" height="11" rx="5.5"></rect>
                <rect id="Rectangle-2-Copy-7" x="2" y="196" width="145" height="11" rx="5.5"></rect>
                <rect id="Rectangle-2-Copy-8" x="2" y="224" width="145" height="11" rx="5.5"></rect>
            </g>
            <path d="M201.105718,207 L189.003382,207 C182.921804,207 178,211.924868 178,218 C178,224.076468 182.926382,229 189.003382,229 L251.996618,229 C258.078196,229 263,224.075132 263,218 C263,211.923532 258.073618,207 251.996618,207 L240.894282,207 C239.85898,199.696665 231.347095,194 221,194 C210.652905,194 202.14102,199.696665 201.105718,207 Z" id="Combined-Shape" fill="#0F0F0F"></path>
        </g>
    </g>
</svg>